<svg fill='#e73030' width="20.108mm" height="16.933mm" version="1.1" viewBox="0 0 76 64" xmlns="http://www.w3.org/2000/svg">
 <title>logo</title>
 <g class="prd-logo" transform="matrix(.094826 0 0 .13909 .0028635 4.6784e-5)" data-name="Layer 2">
  <g data-name="Layer 1">
   <path d="m209.39 272.17 41.22-127a109 109 0 0 1-12.29 9.62 62.68 62.68 0 0 1-35.32 10.45c-26.63-0.23-53.27 0-79.9-0.12-2.41 0-3.38 0.68-4.14 3-10.83 33.67-21.83 67.28-32.66 101-0.81 2.53-1.93 3.13-4.43 3.12q-39.45-0.14-78.9 0c-3 0-3.51-0.54-2.58-3.39q19.61-59.77 38.96-119.6 14.33-44.1 28.56-88.25c0.75-2.35 1.84-3 4.22-3 56.39 0.07 112.78-0.09 169.17 0.16 13.52 0.06 24.4 6 31.57 18.44 1.71-5.24 3.51-10.18 4.9-15.25 0.72-2.63 1.9-3.37 4.61-3.36q69.71 0.14 139.41 0.06h30.42a57.81 57.81 0 0 1 13.25 1.47c14.18 3.29 20.73 13.11 17.38 27.27-2.66 11.25-6.58 22.18-10.59 33-2.51 6.82-7.95 11.44-14 15.29-7.66 4.91-16.05 8.12-24.73 10.68-1.35 0.4-2.68 0.85-4.55 1.45 7.66 2.8 14.63 5.42 20.15 10.78 5.77 5.61 7.37 12.17 4.87 19.83q-15.3 47.18-30.59 94.27a63.23 63.23 0 0 0-2.74 11.67c-1.27 9.87 2.8 16.88 12.08 20.59 7.39 2.95 15.16 3.36 23 3.37h165.47c4.59 0 4.62 0 3.25 4.24q-16.19 50-32.35 100c-0.74 2.3-1.78 3.06-4.21 3.06q-126.54-0.11-253.08-0.05a35.11 35.11 0 0 1-23.56-8.79c-8.94-7.66-11.57-17.28-8-28.31 10.16-31.77 20.53-63.48 30.86-95.21q18.59-57.1 37.28-114.17c1-3 0.24-3.4-2.61-3.36q-17.72 0.22-35.44 0c-2.54 0-3.66 0.69-4.45 3.14-10.69 33.25-21.55 66.44-32.18 99.7-1.07 3.36-2.46 4.34-5.95 4.32-25.74-0.17-51.49-0.09-77.23-0.09zm-56-142.78c6.24 0 12.47-0.06 18.7 0 1.86 0 2.79-0.55 3.35-2.37q4.77-15.27 9.75-30.47c0.75-2.27 0.32-2.91-2.09-2.89q-18.7 0.14-37.4 0c-1.88 0-2.75 0.56-3.31 2.38q-4.74 15.29-9.71 30.48c-0.72 2.18-0.43 2.93 2 2.88 6.32-0.09 12.52-0.01 18.75-0.01zm242.1-35.65h-40.77c-1.7 0-2 1.11-2.34 2.28-3.4 10.23-6.77 20.48-10.23 30.69-0.66 1.95-0.53 2.77 1.87 2.75q18.7-0.13 37.41 0a2.94 2.94 0 0 0 3.37-2.46c1.59-5.21 3.33-10.37 5-15.55 1.88-5.77 3.75-11.56 5.73-17.71z"/>
   <path d="m563.88 274.06h-60.5c-6 0-12-0.68-17.63-3.08-13.29-5.63-19.7-18.8-15.38-32.58 7.63-24.29 15.44-48.53 23.26-72.76 2.84-8.79 8.63-15.51 15.87-21 12.68-9.58 26.63-15.4 42.94-14.87 11.91 0.39 23.84 0 35.76 0.13 2.36 0 3.44-0.6 4.21-3 7.18-21.98 14.59-43.9 21.75-65.9 0.79-2.39 1.83-3.25 4.42-3.24q39.95 0.16 79.88 0c3 0 3.17 0.81 2.34 3.35q-21.8 66.89-43.53 133.89c-8.17 25.17-16.36 50.33-24.4 75.54-0.91 2.83-2.2 3.64-5.15 3.62-21.28-0.16-42.56-0.1-63.84-0.1zm-38-72.22h40.27a2.35 2.35 0 0 0 2.56-2c3.39-10.47 6.78-20.95 10.25-31.4 0.6-1.81 0.57-2.58-1.68-2.56-12.59 0.07-25.18 0.05-37.78 0-1.39 0-2.28 0.3-2.74 1.74-3.58 11.28-7.17 22.49-10.91 34.22z"/>
   <path d="m590.11 421.29c-1.19 5.06-2.33 9.59-3.29 14.15-0.33 1.54-1.08 2.05-2.53 1.91a15.49 15.49 0 0 0-1.67 0q-122 0-244 0.08c-3.25 0-4.27-0.77-4-4a83.72 83.72 0 0 0 0-10c0-1.56 0.41-2.32 2.05-2.12a13.29 13.29 0 0 0 1.67 0h251.77z"/>
   <path d="m459.7 444q60.82 0 121.65-0.07c2.93 0 3.6 0.61 2.83 3.42a85.12 85.12 0 0 0-2 10.15c-0.28 1.9-1 2.86-3 2.56a8.43 8.43 0 0 0-1.33 0q-119.65 0-239.31 0.08c-3.25 0-4.25-0.78-4-4a83.71 83.71 0 0 0 0-10c0-1.55 0.41-2.29 2.05-2.11a22.82 22.82 0 0 0 2.34 0z"/>
   <path d="m801.44 33.41a33.44 33.44 0 1 1-33.29-33.41 33.35 33.35 0 0 1 33.29 33.41zm-33.89 28c15.2 0.36 28-11.95 28.39-27.38 0.41-15.17-11.88-28-27.29-28.49-15.24-0.54-28.26 12.03-28.58 27.51-0.32 15.15 12.11 27.95 27.48 28.32z"/>
   <path d="m749.5 50.82c3.07-9.43 6-18.48 8.94-27.55 0.44-1.4 1.34-1.55 2.53-1.54 7 0 14-0.08 21 0.05 4 0.08 5.33 2 4.23 5.85-2.15 7.45-4 8.81-11.86 8.81-8.38 0-8.38 0-11 7.89-2.12 6.49-2.12 6.49-8.86 6.49zm25-24a32.88 32.88 0 0 0-4.34 0c-2.06 0.29-1.93 2.27-2.11 3.62-0.21 1.66 1.38 0.83 2.18 1 3.68 0.7 3.77-2.05 4.32-4.67z"/>
  </g>
 </g>
</svg>
